<svg width="20" height="24" viewBox="0 0 20 24" fill="none" xmlns="http://www.w3.org/2000/svg">
<g id="Vector">
<path d="M14.1134 0.00136624C12.7521 0.0932411 11.2952 0.903241 10.3934 1.99637C9.60398 2.95824 8.94211 4.37012 9.19336 5.83637C8.96836 5.76699 8.76398 5.75949 8.51836 5.67137C7.84898 5.43324 7.08398 5.17637 6.13336 5.17637C4.24523 5.17637 2.31211 6.29949 1.09336 8.17637C-0.680392 10.9026 -0.324142 15.7007 2.36836 19.8014C2.84273 20.5214 3.39586 21.307 4.07836 21.9314C4.76086 22.5557 5.58586 23.032 6.55336 23.0414C7.38023 23.0507 7.95586 22.7751 8.47336 22.5464C8.99086 22.3176 9.47273 22.1151 10.3784 22.1114C10.384 22.1114 10.3877 22.1114 10.3934 22.1114C11.2952 22.1039 11.7621 22.3026 12.2684 22.5314C12.7746 22.7601 13.3446 23.0489 14.1734 23.0414C15.1596 23.0339 15.9977 22.4939 16.6934 21.8264C17.389 21.1589 17.9609 20.3395 18.4334 19.6214C19.1102 18.5901 19.3821 18.0276 19.9034 16.8764C19.9577 16.7564 19.9596 16.6176 19.9071 16.4957C19.8565 16.3739 19.7571 16.2782 19.6334 16.2314C17.9271 15.5864 16.954 14.077 16.8134 12.4814C16.6727 10.8857 17.3477 9.24324 19.0484 8.31137C19.174 8.24387 19.2621 8.12574 19.2921 7.98699C19.3202 7.84824 19.2865 7.70199 19.1984 7.59137C17.9777 6.07449 16.2602 5.17637 14.5784 5.17637C13.5059 5.17637 12.7184 5.42949 12.0734 5.67137C11.9665 5.71262 11.8877 5.70887 11.7884 5.74637C12.4427 5.40137 13.0202 4.92324 13.4534 4.36637C14.2409 3.35574 14.8484 1.91762 14.6234 0.406366C14.5859 0.158866 14.3627 -0.0173838 14.1134 0.00136624ZM13.6034 1.14137C13.5715 2.11074 13.2396 3.05949 12.6884 3.76637C12.1109 4.50887 11.1396 5.02262 10.1984 5.17637C10.2152 4.24449 10.5827 3.27887 11.1434 2.59637C11.7321 1.88387 12.7071 1.37012 13.6034 1.14137ZM6.13336 6.13637C6.55336 6.13637 7.52836 6.33699 8.18836 6.57137C8.84836 6.80574 9.54398 7.08137 10.3634 7.08137C11.164 7.08137 11.7977 6.80387 12.4184 6.57137C13.039 6.33887 13.6577 6.13637 14.5784 6.13637C15.7802 6.13637 17.0796 6.76074 18.1034 7.84637C16.4646 9.00324 15.6977 10.807 15.8534 12.5564C16.009 14.3245 17.074 16.0026 18.8234 16.8764C18.8209 16.8818 18.8184 16.8873 18.8159 16.8927C18.4413 17.7086 18.1915 18.2526 17.6384 19.0964C17.179 19.7957 16.6334 20.5607 16.0334 21.1364C15.4334 21.712 14.7977 22.0757 14.1584 22.0814C13.5415 22.087 13.1909 21.9032 12.6584 21.6614C12.1259 21.4195 11.4377 21.142 10.3784 21.1514C9.32086 21.157 8.62336 21.4232 8.08336 21.6614C7.54336 21.8995 7.18898 22.087 6.56836 22.0814C5.91211 22.0757 5.30273 21.757 4.72336 21.2264C4.14398 20.6957 3.62086 19.972 3.16336 19.2764C0.643358 15.4364 0.440858 10.9251 1.88836 8.70137C2.94961 7.06824 5.71336 6.13637 6.13336 6.13637Z" fill="black"/>
<path d="M6.13336 6.13637C6.55336 6.13637 7.52836 6.33699 8.18836 6.57137C8.84836 6.80574 9.54398 7.08137 10.3634 7.08137C11.164 7.08137 11.7977 6.80387 12.4184 6.57137C13.039 6.33887 13.6577 6.13637 14.5784 6.13637C15.7802 6.13637 17.0796 6.76074 18.1034 7.84637C16.4646 9.00324 15.6977 10.807 15.8534 12.5564C16.009 14.3245 17.074 16.0026 18.8234 16.8764L18.8159 16.8927C18.4413 17.7086 18.1915 18.2526 17.6384 19.0964C17.179 19.7957 16.6334 20.5607 16.0334 21.1364C15.4334 21.712 14.7977 22.0757 14.1584 22.0814C13.5415 22.087 13.1909 21.9032 12.6584 21.6614C12.1259 21.4195 11.4377 21.142 10.3784 21.1514C9.32086 21.157 8.62336 21.4232 8.08336 21.6614C7.54336 21.8995 7.18898 22.087 6.56836 22.0814C5.91211 22.0757 5.30273 21.757 4.72336 21.2264C4.14398 20.6957 3.62086 19.972 3.16336 19.2764C0.643358 15.4364 0.440858 10.9251 1.88836 8.70137C2.94961 7.06824 5.71336 6.13637 6.13336 6.13637Z" fill="black"/>
<path d="M13.6034 1.14137C13.5715 2.11074 13.2396 3.05949 12.6884 3.76637C12.1109 4.50887 11.1396 5.02262 10.1984 5.17637C10.2152 4.24449 10.5827 3.27887 11.1434 2.59637C11.7321 1.88387 12.7071 1.37012 13.6034 1.14137Z" fill="black"/>
</g>
</svg>
