<?xml version="1.0" standalone="no"?>
<!DOCTYPE svg PUBLIC "-//W3C//DTD SVG 20010904//EN"
 "http://www.w3.org/TR/2001/REC-SVG-20010904/DTD/svg10.dtd">
<svg version="1.0" xmlns="http://www.w3.org/2000/svg"
 width="204.000000pt" height="115.000000pt" viewBox="0 0 204.000000 115.000000"
 preserveAspectRatio="xMidYMid meet">

<g transform="translate(0.000000,115.000000) scale(0.100000,-0.100000)"
fill="#000000" stroke="none">
<path d="M980 911 c-52 -11 -92 -35 -132 -79 -46 -51 -62 -100 -55 -173 9
-104 66 -166 153 -167 45 -1 122 27 97 35 -7 3 -13 19 -13 36 -1 42 -28 75
-65 79 -26 3 -30 7 -33 39 -2 23 2 40 12 48 8 7 12 19 9 27 -3 8 2 17 12 20
13 5 14 9 3 15 -11 7 -10 10 1 21 11 10 14 10 18 1 8 -22 23 -14 23 12 0 14 3
25 8 26 4 0 18 2 31 5 14 2 28 -1 32 -7 4 -7 15 -9 25 -5 16 6 16 8 4 16 -11
7 -11 10 -2 10 24 0 100 -87 113 -129 7 -23 18 -41 25 -41 11 0 10 9 -1 45 -7
25 -21 57 -30 71 -24 37 -93 83 -134 90 -20 3 -43 7 -51 9 -8 1 -31 -1 -50 -4z
m-60 -81 c0 -20 -5 -30 -15 -30 -8 0 -15 -4 -15 -10 0 -5 -13 -16 -30 -25 -16
-9 -30 -12 -30 -7 0 16 72 100 88 102 1 0 2 -13 2 -30z m-66 -196 c3 -8 12
-14 21 -14 14 0 21 -30 16 -68 -1 -8 6 -23 16 -35 l18 -21 -26 20 c-36 26 -67
73 -75 112 -5 27 -4 31 9 26 8 -3 18 -12 21 -20z"/>
<path d="M1016 755 c10 -8 26 -15 35 -15 8 0 20 -5 26 -11 8 -8 13 -8 18 0 3
6 -2 14 -12 17 -10 3 -28 10 -41 15 -35 14 -48 11 -26 -6z"/>
<path d="M1167 690 c-18 -21 -4 -28 23 -10 10 6 12 12 5 19 -8 8 -16 5 -28 -9z"/>
<path d="M1116 685 c4 -8 11 -15 16 -15 6 0 5 6 -2 15 -7 8 -14 15 -16 15 -2
0 -1 -7 2 -15z"/>
<path d="M1200 664 c-36 -13 -72 -27 -80 -30 -13 -4 -13 -6 0 -14 13 -8 12
-14 -5 -45 -25 -48 -66 -82 -116 -97 -39 -11 -67 -8 -134 17 -16 6 -15 3 5
-15 94 -80 241 -66 325 32 29 35 37 39 50 28 8 -7 18 -11 21 -8 3 3 4 39 2 81
l-3 75 -65 -24z"/>
<path d="M400 290 c0 -56 2 -60 23 -60 34 0 67 28 67 56 0 44 -17 64 -55 64
l-35 0 0 -60z m65 20 c9 -30 -4 -60 -26 -60 -16 0 -19 7 -19 40 0 33 3 40 19
40 11 0 23 -9 26 -20z"/>
<path d="M512 293 c3 -56 4 -58 32 -61 16 -2 33 1 39 7 8 8 2 11 -21 11 -22 0
-32 5 -32 15 0 8 9 15 20 15 11 0 20 5 20 10 0 6 -9 10 -20 10 -11 0 -20 7
-20 15 0 9 9 15 25 15 14 0 25 5 25 10 0 6 -16 10 -35 10 l-36 0 3 -57z"/>
<path d="M612 293 c3 -52 5 -58 27 -61 13 -2 28 1 34 7 8 8 3 11 -16 11 -26 0
-27 2 -27 50 0 28 -5 50 -10 50 -7 0 -10 -22 -8 -57z"/>
<path d="M702 293 c3 -52 5 -58 27 -61 13 -2 28 1 34 7 8 8 3 11 -16 11 -26 0
-27 2 -27 50 0 28 -5 50 -10 50 -7 0 -10 -22 -8 -57z"/>
<path d="M796 303 c-20 -59 -21 -86 -2 -60 16 21 39 22 56 2 7 -9 15 -14 17
-11 9 9 -31 116 -43 116 -7 0 -19 -21 -28 -47z m32 -22 c-15 -5 -19 4 -11 24
6 18 7 18 13 -1 4 -10 3 -21 -2 -23z"/>
<path d="M890 290 c0 -33 4 -60 10 -60 6 0 10 11 10 25 0 18 5 25 20 25 11 0
20 5 20 10 0 6 -9 10 -20 10 -11 0 -20 7 -20 15 0 9 9 15 25 15 14 0 25 5 25
10 0 6 -16 10 -35 10 l-35 0 0 -60z"/>
<path d="M980 300 c0 -38 4 -52 19 -60 27 -14 37 -13 55 6 18 17 23 104 6 104
-5 0 -10 -17 -10 -37 0 -46 -13 -68 -34 -60 -11 5 -16 19 -16 52 0 25 -4 45
-10 45 -5 0 -10 -22 -10 -50z"/>
<path d="M1102 293 c3 -52 5 -58 27 -61 13 -2 28 1 34 7 8 8 3 11 -16 11 -33
0 -36 25 -4 35 l22 8 -22 4 c-32 6 -30 33 2 33 14 0 25 5 25 10 0 6 -16 10
-35 10 l-36 0 3 -57z"/>
<path d="M1190 296 c0 -66 18 -84 22 -24 l3 43 20 -39 c31 -62 45 -58 45 13 0
68 -20 85 -21 19 l-1 -43 -19 43 c-28 61 -49 56 -49 -12z"/>
<path d="M1300 340 c0 -5 7 -10 15 -10 11 0 15 -12 15 -50 0 -27 5 -50 10 -50
6 0 10 23 10 50 0 38 4 50 15 50 8 0 15 5 15 10 0 6 -18 10 -40 10 -22 0 -40
-4 -40 -10z"/>
<path d="M1402 293 c3 -52 5 -58 27 -61 13 -2 28 1 34 7 8 8 3 11 -16 11 -33
0 -36 25 -4 35 l22 8 -22 4 c-32 6 -30 33 2 33 14 0 25 5 25 10 0 6 -16 10
-35 10 l-36 0 3 -57z"/>
<path d="M1497 343 c-15 -15 -5 -44 18 -55 32 -14 33 -40 3 -38 -36 3 -44 0
-28 -10 22 -14 46 -12 64 6 19 19 7 49 -24 59 -28 9 -25 25 5 25 14 0 25 5 25
10 0 11 -53 14 -63 3z"/>
<path d="M1592 293 c3 -55 4 -58 31 -61 15 -2 27 1 27 7 0 6 -9 11 -20 11 -17
0 -20 7 -20 50 0 28 -5 50 -10 50 -7 0 -10 -22 -8 -57z"/>
</g>
</svg>
