<svg width="30" height="30" viewBox="0 0 30 30" fill="none" xmlns="http://www.w3.org/2000/svg">
<g id="icon-number-03" clip-path="url(#clip0_117_2297)">
<circle id="Ellipse 1" cx="15" cy="15" r="15" fill="#1A202C"/>
<path id="3" d="M14.9682 21.424C14.0402 21.424 13.2136 21.2645 12.4886 20.9455C11.7677 20.6224 11.1981 20.1791 10.7796 19.6156C10.3653 19.048 10.152 18.3934 10.1395 17.6518H12.849C12.8656 17.9626 12.9671 18.236 13.1536 18.4722C13.3441 18.7042 13.5969 18.8844 13.9117 19.0128C14.2266 19.1412 14.5808 19.2055 14.9744 19.2055C15.3846 19.2055 15.7471 19.133 16.0619 18.988C16.3768 18.843 16.6233 18.642 16.8015 18.3852C16.9796 18.1283 17.0687 17.8321 17.0687 17.4965C17.0687 17.1568 16.9734 16.8564 16.7828 16.5954C16.5964 16.3302 16.3271 16.1231 15.9749 15.9739C15.6269 15.8248 15.2126 15.7502 14.732 15.7502H13.5451V13.774H14.732C15.138 13.774 15.4964 13.7036 15.8071 13.5627C16.122 13.4218 16.3664 13.2271 16.5405 12.9785C16.7145 12.7258 16.8015 12.4317 16.8015 12.0961C16.8015 11.7771 16.7248 11.4974 16.5715 11.2571C16.4224 11.0127 16.2111 10.8221 15.9376 10.6854C15.6684 10.5487 15.3535 10.4803 14.993 10.4803C14.6285 10.4803 14.2949 10.5466 13.9925 10.6792C13.6901 10.8076 13.4477 10.992 13.2654 11.2323C13.0831 11.4726 12.9858 11.7543 12.9733 12.0774H10.3943C10.4067 11.3441 10.616 10.6978 11.022 10.1385C11.428 9.57922 11.9749 9.14214 12.6626 8.82727C13.3545 8.50826 14.1354 8.34875 15.0055 8.34875C15.8838 8.34875 16.6523 8.50826 17.311 8.82727C17.9698 9.14628 18.4814 9.57715 18.846 10.1199C19.2148 10.6585 19.397 11.2633 19.3929 11.9345C19.397 12.6471 19.1754 13.2416 18.728 13.7181C18.2846 14.1945 17.7067 14.497 16.9941 14.6254V14.7248C17.9304 14.845 18.643 15.1702 19.1319 15.7005C19.6249 16.2267 19.8693 16.8854 19.8652 17.6767C19.8693 18.4017 19.6601 19.046 19.2375 19.6094C18.8191 20.1729 18.2411 20.6162 17.5037 20.9393C16.7662 21.2625 15.9211 21.424 14.9682 21.424Z" fill="white"/>
</g>
<defs>
<clipPath id="clip0_117_2297">
<rect width="30" height="30" fill="white"/>
</clipPath>
</defs>
</svg>
