<svg width="30" height="30" viewBox="0 0 30 30" fill="none" xmlns="http://www.w3.org/2000/svg">
<g id="icon-number-05" clip-path="url(#clip0_117_2295)">
<circle id="Ellipse 1" cx="15" cy="15" r="15" fill="#1A202C"/>
<path id="5" d="M15.0404 21.424C14.162 21.424 13.379 21.2624 12.6913 20.9393C12.0077 20.6161 11.465 20.1707 11.0631 19.6031C10.6612 19.0355 10.452 18.3851 10.4354 17.6518H13.0455C13.0745 18.1448 13.2817 18.5446 13.667 18.8512C14.0523 19.1578 14.5101 19.3111 15.0404 19.3111C15.4629 19.3111 15.8358 19.2178 16.159 19.0314C16.4863 18.8408 16.7411 18.5777 16.9234 18.2422C17.1098 17.9024 17.203 17.513 17.203 17.0738C17.203 16.6264 17.1077 16.2328 16.9171 15.8931C16.7307 15.5534 16.4718 15.2882 16.1403 15.0976C15.8089 14.9071 15.4298 14.8097 15.0031 14.8056C14.6302 14.8056 14.2677 14.8822 13.9155 15.0355C13.5675 15.1888 13.2962 15.398 13.1014 15.6632L10.7089 15.2344L11.3117 8.52271H19.0922V10.7226H13.5302L13.2009 13.9107H13.2754C13.4992 13.5958 13.8368 13.3348 14.2884 13.1276C14.74 12.9205 15.2454 12.8169 15.8047 12.8169C16.5712 12.8169 17.2548 12.9971 17.8555 13.3576C18.4563 13.718 18.9306 14.2131 19.2786 14.8428C19.6267 15.4684 19.7986 16.1893 19.7944 17.0055C19.7986 17.8631 19.5997 18.6254 19.1979 19.2924C18.8001 19.9553 18.2429 20.4773 17.5262 20.8585C16.8136 21.2355 15.985 21.424 15.0404 21.424Z" fill="white"/>
</g>
<defs>
<clipPath id="clip0_117_2295">
<rect width="30" height="30" fill="white"/>
</clipPath>
</defs>
</svg>
