<svg width="30" height="30" viewBox="0 0 30 30" fill="none" xmlns="http://www.w3.org/2000/svg">
<g id="icon-number-02" clip-path="url(#clip0_117_2299)">
<circle id="Ellipse 1" cx="15" cy="15" r="15" fill="#1A202C"/>
<path id="2" d="M10.5202 21.25V19.3111L15.0505 15.1163C15.4358 14.7434 15.759 14.4078 16.02 14.1095C16.2851 13.8112 16.4861 13.5191 16.6228 13.2333C16.7595 12.9433 16.8279 12.6305 16.8279 12.2949C16.8279 11.922 16.7429 11.6009 16.5731 11.3316C16.4032 11.0582 16.1712 10.849 15.8771 10.704C15.5829 10.5548 15.2494 10.4803 14.8765 10.4803C14.4871 10.4803 14.1474 10.559 13.8573 10.7164C13.5673 10.8738 13.3436 11.0996 13.1862 11.3938C13.0287 11.6879 12.95 12.038 12.95 12.444H10.3959C10.3959 11.6113 10.5844 10.8883 10.9614 10.2752C11.3384 9.66202 11.8666 9.18765 12.5461 8.85207C13.2255 8.51648 14.0086 8.34869 14.8952 8.34869C15.8066 8.34869 16.6 8.51027 17.2753 8.83342C17.9548 9.15243 18.483 9.59573 18.86 10.1633C19.237 10.7309 19.4255 11.3814 19.4255 12.1147C19.4255 12.5953 19.3302 13.0696 19.1397 13.5378C18.9532 14.0059 18.6197 14.5259 18.1391 15.0976C17.6585 15.6652 16.9812 16.3467 16.107 17.1422L14.2489 18.963V19.05H19.5933V21.25H10.5202Z" fill="white"/>
</g>
<defs>
<clipPath id="clip0_117_2299">
<rect width="30" height="30" fill="white"/>
</clipPath>
</defs>
</svg>
